<svg xmlns="http://www.w3.org/2000/svg" viewBox="0 0 512 512">
  <rect x="20" y="20" width="472" height="472" rx="112" fill="#F4F1E8" />
  <path
    fill="none"
    stroke="#425C45"
    stroke-linecap="round"
    stroke-width="24"
    d="M96 386c30-8 41-46 72-38 27 7 34 36 64 25 32-12 38-47 74-38 35 9 45 42 80 40 20-1 36-16 50-34"
  />
  <path
    fill="#D7A93B"
    d="M121 353c42-29 73-67 106-119 25-39 42-80 76-99 29-16 67-8 87 21l31 18-31 18c-9 43-39 82-83 106-39 22-83 27-126 16-18 16-38 29-60 39Z"
  />
</svg>
