<svg xmlns="http://www.w3.org/2000/svg" viewBox="0 0 512 512">
  <rect x="20" y="20" width="472" height="472" rx="58" fill="#FEF8ED" />
  <g transform="translate(0 10.6383) scale(3.6312)">
    <path
      fill="none"
      stroke="#44634C"
      stroke-linecap="round"
      stroke-linejoin="round"
      stroke-width="3.9"
      d="M38 95c6-1.5 11-8.5 18-9.5 7-1 10 7.5 16 7.5 8 0 11-10 18-14 7-3 11 6 19 10"
    />
    <path
      fill="#ECAB4B"
      d="M94 44c-4.3-1.6-7.4-4.9-11.2-7.7-4.1-2.4-8.9-2.3-11.8.7-5 4-8 12-12 19-6 10-18 22-31 33 5.7 1 12 .5 16.8-3.1 5-3.7 9.2-7 14.2-7.1 5.7-.1 8.7 4.7 14 4.2 6.1-.6 10.7-6.8 12.5-13 3-8.1 3.8-16.6 1.7-23.5 2.1-.4 4.1-1.2 5.8-2.6Z"
    />
  </g>
</svg>
